<svg xmlns="http://www.w3.org/2000/svg" width="300" height="86" viewBox="0 0 300 86" role="img" aria-labelledby="title desc">
  <title id="title">HotelnGo · Route n</title><desc id="desc">두 지점을 연결하는 여정 경로를 n으로 사용한 HotelnGo 로고</desc>
  <style>@font-face{font-family:"HNG Sans";src:url("../fonts/LiberationSans-Bold.ttf") format("truetype");font-weight:700}.word{font-family:"HNG Sans","Liberation Sans",Arial,sans-serif;font-weight:700;letter-spacing:-2.8px}</style>
  <g transform="translate(8)"><text class="word" x="0" y="59" fill="#181B1A" font-size="59">Hotel</text><path d="M146 55V43c0-8 6-14 14-14s15 6 15 15v11" fill="none" stroke="#7D8FB8" stroke-width="6.5" stroke-linecap="round"/><circle cx="146" cy="57" r="4.5" fill="#7D8FB8"/><circle cx="175" cy="57" r="4.5" fill="#7D8FB8"/><text class="word" x="182" y="59" fill="#181B1A" font-size="56">g</text><g transform="translate(8)"><path d="M247 6c-20.5 0-35 13.7-35 33.5 0 16.5 11.3 28.7 35 45.5 23.7-16.8 35-29 35-45.5C282 19.7 267.5 6 247 6Z" fill="#2F6BFF"/><circle cx="247" cy="38.5" r="14" fill="#fff"/><path d="m239 39 17-8-6.2 17.6-4.5-7Z" fill="#2F6BFF"/></g></g>
</svg>
