<svg xmlns="http://www.w3.org/2000/svg" width="300" height="86" viewBox="0 0 300 86" role="img" aria-labelledby="title desc">
  <title id="title">HotelnGo · Bridge n</title><desc id="desc">비대칭 브리지를 n으로 사용한 HotelnGo 로고</desc>
  <style>@font-face{font-family:"HNG Sans";src:url("../fonts/LiberationSans-Bold.ttf") format("truetype");font-weight:700}.word{font-family:"HNG Sans","Liberation Sans",Arial,sans-serif;font-weight:700;letter-spacing:-2.8px}</style>
  <g transform="translate(8)"><text class="word" x="0" y="59" fill="#181B1A" font-size="59">Hotel</text><path d="M146 59V31m0 14c5-9 11-14 18-14 9 0 14 7 14 17v11" fill="none" stroke="#7D8FB8" stroke-width="7.5" stroke-linecap="round" stroke-linejoin="round"/><text class="word" x="183" y="59" fill="#181B1A" font-size="56">g</text><g transform="translate(9)"><path d="M247 6c-20.5 0-35 13.7-35 33.5 0 16.5 11.3 28.7 35 45.5 23.7-16.8 35-29 35-45.5C282 19.7 267.5 6 247 6Z" fill="#2F6BFF"/><circle cx="247" cy="38.5" r="14" fill="#fff"/><path d="m239 39 17-8-6.2 17.6-4.5-7Z" fill="#2F6BFF"/></g></g>
</svg>
