<svg xmlns="http://www.w3.org/2000/svg" width="300" height="86" viewBox="0 0 300 86" role="img" aria-labelledby="title desc">
  <title id="title">HotelnGo · Open Door Gate</title><desc id="desc">열린 문을 포함한 작은 아치 게이트 심볼을 사용한 HotelnGo 로고</desc>
  <style>@font-face{font-family:"HNG Sans";src:url("../fonts/LiberationSans-Bold.ttf") format("truetype");font-weight:700}.word{font-family:"HNG Sans","Liberation Sans",Arial,sans-serif;font-weight:700;letter-spacing:-2.8px}</style>
  <g transform="translate(8)"><text class="word" x="0" y="59" fill="#181B1A" font-size="59">Hotel</text><path fill="#7D8FB8" fill-rule="evenodd" d="M145 59V46c0-9 6-15 14-15s14 6 14 15v13h-7V46c0-5-2.8-8-7-8s-7 3-7 8v13Z"/><path d="m159 40 6 3v16h-6Z" fill="#7D8FB8" fill-opacity=".45"/><text class="word" x="179" y="59" fill="#181B1A" font-size="56">g</text><g transform="translate(5)"><path d="M247 6c-20.5 0-35 13.7-35 33.5 0 16.5 11.3 28.7 35 45.5 23.7-16.8 35-29 35-45.5C282 19.7 267.5 6 247 6Z" fill="#2F6BFF"/><circle cx="247" cy="38.5" r="14" fill="#fff"/><path d="m239 39 17-8-6.2 17.6-4.5-7Z" fill="#2F6BFF"/></g></g>
</svg>
