<?xml version="1.0" encoding="UTF-8"?>
<!-- Generator: visioncortex VTracer 0.6.12 -->
<svg version="1.1" xmlns="http://www.w3.org/2000/svg" width="88" height="88">
<path d="M0 0 C6.818 5.874 10.328 12.887 11.355 21.766 C11.841 32.48 8.855 40.827 1.816 48.914 C-2.886 53.781 -7.837 58.35 -12.996 62.727 C-13.733 63.363 -14.471 64 -15.23 64.656 C-15.916 65.216 -16.602 65.775 -17.309 66.352 C-17.903 66.839 -18.497 67.326 -19.109 67.828 C-20.996 68.727 -20.996 68.727 -23.328 68.699 C-27.021 67.353 -29.468 65.138 -32.371 62.539 C-33.527 61.526 -34.683 60.513 -35.84 59.5 C-36.388 59.015 -36.936 58.53 -37.5 58.03 C-39.243 56.512 -41.054 55.093 -42.871 53.664 C-50.356 47.222 -55.536 38.273 -56.871 28.539 C-57.447 19.625 -55.475 11.362 -49.66 4.473 C-36.369 -9.474 -15.904 -11.551 0 0 Z " fill="#2F6BFF" transform="translate(66.99609375,13.2734375)"/>
<path d="M0 0 C3.063 1.817 5.4 3.8 7 7 C7.588 12.141 8.175 17.315 4.812 21.562 C1.377 24.902 -1.693 25.857 -6.438 26.375 C-10.451 26.235 -13.148 24.783 -16 22 C-18.624 18.152 -19.656 14.636 -19.488 10.027 C-18.399 5.507 -14.925 2.196 -11.07 -0.199 C-7.337 -1.643 -3.797 -1.038 0 0 Z " fill="#FFFFFF" transform="translate(50,25)"/>
<path d="M0 0 C-1.069 5.116 -2.233 10.078 -4 15 C-4.66 15 -5.32 15 -6 15 C-6.433 14.237 -6.866 13.474 -7.312 12.688 C-9.2 9.681 -10.881 8.601 -14 7 C-11.725 4.447 -9.568 3.159 -6.438 1.812 C-5.652 1.468 -4.867 1.124 -4.059 0.77 C-2 0 -2 0 0 0 Z " fill="#2F6BFF" transform="translate(50,31)"/>
</svg>
