<?xml version="1.0" encoding="UTF-8"?>
<!-- Generator: visioncortex VTracer 0.6.12 -->
<svg version="1.1" xmlns="http://www.w3.org/2000/svg" width="303" height="91">
<path d="M0 0 C6.818 5.874 10.328 12.887 11.355 21.766 C11.841 32.48 8.855 40.827 1.816 48.914 C-2.886 53.781 -7.837 58.35 -12.996 62.727 C-13.733 63.363 -14.471 64 -15.23 64.656 C-15.916 65.216 -16.602 65.775 -17.309 66.352 C-17.903 66.839 -18.497 67.326 -19.109 67.828 C-20.996 68.727 -20.996 68.727 -23.328 68.699 C-27.021 67.353 -29.468 65.138 -32.371 62.539 C-33.527 61.526 -34.683 60.513 -35.84 59.5 C-36.388 59.015 -36.936 58.53 -37.5 58.03 C-39.243 56.512 -41.054 55.093 -42.871 53.664 C-50.356 47.222 -55.536 38.273 -56.871 28.539 C-57.447 19.625 -55.475 11.362 -49.66 4.473 C-36.369 -9.474 -15.904 -11.551 0 0 Z " fill="#3670FF" transform="translate(282.99609375,17.2734375)"/>
<path d="M0 0 C1.777 1.02 1.777 1.02 3 2 C3.33 1.34 3.66 0.68 4 0 C6.97 0 9.94 0 13 0 C13.099 4.323 13.172 8.646 13.22 12.97 C13.24 14.439 13.267 15.909 13.302 17.378 C13.351 19.496 13.373 21.612 13.391 23.73 C13.411 24.383 13.432 25.035 13.453 25.707 C13.455 30.406 12.279 32.691 9 36 C4.487 38.787 -0.869 38.63 -6 38 C-9.011 37.09 -11.555 35.998 -14 34 C-15 31.25 -15 31.25 -15 29 C-11.7 29 -8.4 29 -5 29 C-5 29.66 -5 30.32 -5 31 C-3.845 30.835 -3.845 30.835 2 30 C2 28.68 2 27.36 2 26 C1.34 26.33 0.68 26.66 0 27 C-4.104 27.564 -7.752 27.526 -11.375 25.375 C-14.378 23.049 -15.266 20.744 -16 17 C-16.488 11.628 -15.774 7.667 -13 3 C-9.671 -0.969 -4.828 -0.685 0 0 Z M-4.75 8.062 C-6.623 10.966 -6.578 13.641 -6 17 C-4.812 19 -4.812 19 -3 20 C-0.337 19.87 1.294 19.578 3.375 17.875 C4.366 14.902 3.889 11.977 3 9 C1 7 1 7 -0.938 6.688 C-3 7 -3 7 -4.75 8.062 Z " fill="#2E3130" transform="translate(208,33)"/>
<path d="M0 0 C2.97 0 5.94 0 9 0 C9 4.95 9 9.9 9 15 C13.95 15 18.9 15 24 15 C24 10.05 24 5.1 24 0 C26.97 0 29.94 0 33 0 C33 11.88 33 23.76 33 36 C30.03 36 27.06 36 24 36 C24 31.38 24 26.76 24 22 C19.05 22 14.1 22 9 22 C9 26.62 9 31.24 9 36 C6.03 36 3.06 36 0 36 C0 24.12 0 12.24 0 0 Z " fill="#1E2120" transform="translate(8,24)"/>
<path d="M0 0 C4.917 3.258 7.81 7.404 9.295 13.103 C9.988 16.824 9.996 20.519 9.98 24.293 C9.997 25.086 10.013 25.88 10.029 26.697 C10.032 30.189 9.984 32.505 8.34 35.633 C6.668 37.105 6.668 37.105 3.605 37.48 C0.668 37.105 0.668 37.105 -1.332 35.105 C-1.711 32.998 -1.711 32.998 -1.895 30.422 C-1.969 29.494 -2.044 28.567 -2.121 27.611 C-2.191 26.64 -2.26 25.669 -2.332 24.668 C-2.47 22.752 -2.615 20.837 -2.77 18.922 C-2.83 18.071 -2.891 17.219 -2.953 16.342 C-3.343 14.043 -3.788 12.836 -5.332 11.105 C-7.277 10.812 -7.277 10.812 -9.457 10.918 C-10.181 10.945 -10.906 10.972 -11.652 11 C-12.207 11.035 -12.761 11.07 -13.332 11.105 C-13.681 11.816 -14.031 12.526 -14.391 13.258 C-14.846 14.177 -15.301 15.096 -15.77 16.043 C-16.222 16.959 -16.674 17.876 -17.141 18.82 C-18.332 21.105 -18.332 21.105 -19.332 22.105 C-24.696 22.572 -24.696 22.572 -27.031 20.859 C-28.705 18.603 -28.608 17.552 -28.27 14.793 C-27.338 8.557 -24.208 4.121 -19.332 0.105 C-13.031 -2.759 -6.273 -3.058 0 0 Z " fill="#5EB0F4" transform="translate(176.33203125,23.89453125)"/>
<path d="M0 0 C1.558 1.558 1.308 3.205 1.5 5.367 C1.541 5.81 1.541 5.81 1.75 8.051 C1.791 8.517 1.791 8.517 2 10.875 C2.163 12.706 2.33 14.537 2.5 16.367 C2.572 17.183 2.644 17.999 2.719 18.839 C3 21 3 21 4 24 C11.187 24.461 11.187 24.461 13.875 22.938 C15.247 20.575 15.873 18.276 16.473 15.621 C17 14 17 14 19 12 C21.406 12.033 23.623 12.56 26 13 C27.873 16.845 28.259 19.271 27.125 23.438 C25.075 28.736 21.841 32.087 17 35 C11.085 37.387 5.893 37.497 -0.027 35.105 C-3.266 33.291 -5.132 31.178 -7 28 C-7.318 27.482 -7.637 26.964 -7.965 26.43 C-10.329 21.571 -10.278 16.547 -10.312 11.25 C-10.318 10.505 -10.324 9.759 -10.329 8.991 C-10.237 1.962 -10.237 1.962 -8 -1 C-4.364 -2.212 -3.362 -1.593 0 0 Z " fill="#39B5EA" transform="translate(145,25)"/>
<path d="M0 0 C5.595 4.896 5.051 6.205 6 14.75 C-0.27 14.75 -6.54 14.75 -13 14.75 C-12.67 15.74 -12.34 16.73 -12 17.75 C-10.866 17.936 -9.731 18.121 -8.562 18.312 C-7.924 18.417 -7.286 18.521 -6.629 18.629 C-6.091 18.669 -5.554 18.709 -5 18.75 C-4.67 18.42 -4.34 18.09 -4 17.75 C-2.314 17.678 -0.625 17.666 1.062 17.688 C1.982 17.697 2.901 17.706 3.848 17.715 C4.558 17.726 5.268 17.738 6 17.75 C4.57 21.534 3.554 23.857 -0.188 25.625 C-5.831 27.605 -10.796 27.532 -16.312 25.188 C-19.676 23.287 -21.442 21.494 -22.664 17.812 C-23.414 13.207 -23.262 8.31 -21.172 4.07 C-16.219 -2.573 -7.212 -3.005 0 0 Z M-11.25 6.688 C-11.539 7.028 -11.539 7.028 -13 8.75 C-10.03 8.75 -7.06 8.75 -4 8.75 C-5 5.75 -5 5.75 -6.812 4.812 C-9 4.75 -9 4.75 -11.25 6.688 Z " fill="#333635" transform="translate(113,34.25)"/>
<path d="M0 0 C3.02 2.19 4.18 3.293 5.5 6.812 C6.114 11.775 6.528 16.884 3.875 21.312 C0.22 25.16 -3.142 26.942 -8.438 27.188 C-12.557 26.991 -16.106 26.236 -19.5 23.812 C-22.446 20.527 -23.736 17.141 -23.938 12.75 C-23.621 7.474 -21.838 4.084 -18 0.438 C-12.872 -2.626 -5.392 -2.346 0 0 Z M-12.641 7.078 C-14.186 10.196 -13.951 13.421 -13.5 16.812 C-12.312 18.875 -12.312 18.875 -10.5 19.812 C-7.812 19.5 -7.812 19.5 -5.5 18.812 C-3.291 12.553 -3.291 12.553 -4.312 8.938 C-5.5 6.812 -5.5 6.812 -6.5 5.812 C-11.077 5.343 -11.077 5.343 -12.641 7.078 Z " fill="#313433" transform="translate(66.5,34.1875)"/>
<path d="M0 0 C3.063 1.817 5.4 3.8 7 7 C7.588 12.141 8.175 17.315 4.812 21.562 C1.377 24.902 -1.693 25.857 -6.438 26.375 C-10.451 26.235 -13.148 24.783 -16 22 C-18.624 18.152 -19.656 14.636 -19.488 10.027 C-18.399 5.507 -14.925 2.196 -11.07 -0.199 C-7.337 -1.643 -3.797 -1.038 0 0 Z " fill="#F6F8FF" transform="translate(266,29)"/>
<path d="M0 0 C2.97 0 5.94 0 9 0 C9 1.98 9 3.96 9 6 C10.65 6 12.3 6 14 6 C14 8.31 14 10.62 14 13 C12.35 13 10.7 13 9 13 C9 17.29 9 21.58 9 26 C10.98 26 12.96 26 15 26 C15.098 31.371 15.098 31.371 15 33 C13.522 34.478 12.309 34.204 10.25 34.25 C5.999 34.212 3.061 33.061 0 30 C-0.114 28.326 -0.114 28.326 -0.098 26.184 C-0.096 25.802 -0.096 25.802 -0.088 23.869 C-0.08 23.067 -0.071 22.264 -0.062 21.438 C-0.058 20.631 -0.053 19.825 -0.049 18.994 C-0.037 16.996 -0.021 14.998 0 13 C-1.32 13 -2.64 13 -4 13 C-4 10.69 -4 8.38 -4 6 C-2.68 6 -1.36 6 0 6 C0 4.02 0 2.04 0 0 Z " fill="#2C2F2E" transform="translate(76,27)"/>
<path d="M0 0 C3.3 0 6.6 0 10 0 C10 11.88 10 23.76 10 36 C6.7 36 3.4 36 0 36 C0 24.12 0 12.24 0 0 Z " fill="#393B3A" transform="translate(120,24)"/>
<path d="M0 0 C0.99 0 1.98 0 3 0 C3.33 1.32 3.66 2.64 4 4 C4.99 3.01 5.98 2.02 7 1 C7.33 7.93 7.66 14.86 8 22 C8.66 22 9.32 22 10 22 C10 22.66 10 23.32 10 24 C10.99 24 11.98 24 13 24 C13 27.3 13 30.6 13 34 C5.395 33.742 5.395 33.742 2.25 30.812 C-1.614 25.817 -0.518 19.109 -0.312 13.125 C-0.287 11.852 -0.265 10.578 -0.244 9.305 C-0.189 6.202 -0.103 3.101 0 0 Z " fill="#08BFC5" transform="translate(138,26)"/>
<path d="M0 0 C1.558 1.558 1.308 3.205 1.5 5.367 C1.541 5.81 1.541 5.81 1.75 8.051 C1.791 8.517 1.791 8.517 2 10.875 C2.163 12.706 2.33 14.537 2.5 16.367 C2.572 17.183 2.644 17.999 2.719 18.839 C3 21 3 21 4 24 C7.3 24 10.6 24 14 24 C13.67 24.66 13.34 25.32 13 26 C12.01 26 11.02 26 10 26 C10 29.3 10 32.6 10 36 C5.91 37.363 4.051 36.299 0 35 C0.33 34.835 0.33 34.835 2 34 C2 32.02 2 30.04 2 28 C2.33 28 2.66 28 3 28 C3 30.31 3 32.62 3 35 C3.99 35 4.98 35 6 35 C6 31.7 6 28.4 6 25 C5.01 25 4.02 25 3 25 C3 24.34 3 23.68 3 23 C2.34 23 1.68 23 1 23 C0.67 23.66 0.34 24.32 0 25 C-0.33 17.74 -0.66 10.48 -1 3 C-1.66 6.3 -2.32 9.6 -3 13 C-3.33 13 -3.66 13 -4 13 C-4 9.04 -4 5.08 -4 1 C-4.99 1 -5.98 1 -7 1 C-6.919 1.284 -6.919 1.284 -6.51 2.72 C-5.63 6.651 -5.815 10.613 -5.812 14.625 C-5.8 15.496 -5.788 16.368 -5.775 17.266 C-5.773 18.098 -5.772 18.931 -5.77 19.789 C-5.765 20.549 -5.761 21.309 -5.757 22.092 C-6 24 -6 24 -8 26 C-9.99 21.024 -10.306 16.706 -10.25 11.375 C-10.258 10.625 -10.265 9.875 -10.273 9.102 C-10.248 1.952 -10.248 1.952 -8 -1 C-4.364 -2.212 -3.362 -1.593 0 0 Z " fill="#44CADA" transform="translate(145,25)"/>
<path d="M0 0 C0.484 7.94 0.106 14.058 -4 21 C-5 22 -5 22 -7.875 22.25 C-11 22 -11 22 -12.699 20.754 C-14.373 18.497 -14.276 17.446 -13.938 14.688 C-13.264 10.366 -12.256 7.026 -9 4 C-2.595 0 -2.595 0 0 0 Z " fill="#15B7DB" transform="translate(162,24)"/>
<path d="M0 0 C0.33 0.165 0.33 0.165 2 1 C2 11.89 2 22.78 2 34 C2.66 34 3.32 34 4 34 C4 24.1 4 14.2 4 4 C8.089 10.133 8.447 15.473 8.75 22.688 C8.778 23.169 8.778 23.169 8.918 25.604 C8.961 26.522 9.003 27.44 9.047 28.387 C9.087 29.224 9.126 30.062 9.167 30.925 C9 33 9 33 7 35 C3.938 35.188 3.938 35.188 1 35 C0 34 0 34 -0.114 30.765 C-0.113 29.332 -0.108 27.898 -0.098 26.465 C-0.096 25.712 -0.095 24.958 -0.093 24.182 C-0.088 21.767 -0.075 19.352 -0.062 16.938 C-0.057 15.304 -0.053 13.671 -0.049 12.037 C-0.038 8.025 -0.021 4.012 0 0 Z " fill="#2E7FF8" transform="translate(176,26)"/>
<path d="M0 0 C4.579 2.29 5.084 3.438 7 8 C7.852 10.847 8.119 13.361 8.098 16.328 C8.094 17.127 8.091 17.927 8.088 18.75 C8.08 19.575 8.071 20.4 8.062 21.25 C8.058 22.09 8.053 22.931 8.049 23.797 C8.037 25.865 8.021 27.932 8 30 C7.34 30.33 6.68 30.66 6 31 C5.98 30.42 5.96 29.841 5.94 29.243 C5.844 26.599 5.735 23.956 5.625 21.312 C5.594 20.4 5.563 19.488 5.531 18.549 C5.493 17.663 5.454 16.776 5.414 15.863 C5.383 15.052 5.351 14.24 5.319 13.404 C5 11 5 11 3 6 C2.67 14.91 2.34 23.82 2 33 C1.34 33 0.68 33 0 33 C0 22.11 0 11.22 0 0 Z " fill="#2A7CF8" transform="translate(178,27)"/>
<path d="M0 0 C2.375 1.188 2.375 1.188 3.375 3.188 C3.138 3.352 3.138 3.352 1.938 4.188 C-0.422 7.207 -0.367 10.448 -0.625 14.188 C-0.955 14.188 -1.285 14.188 -1.625 14.188 C-1.625 10.227 -1.625 6.267 -1.625 2.188 C-2.615 2.188 -3.605 2.188 -4.625 2.188 C-4.544 2.471 -4.544 2.471 -4.135 3.908 C-3.255 7.838 -3.44 11.8 -3.438 15.812 C-3.425 16.684 -3.413 17.555 -3.4 18.453 C-3.398 19.286 -3.397 20.119 -3.395 20.977 C-3.39 21.737 -3.386 22.497 -3.382 23.28 C-3.625 25.188 -3.625 25.188 -5.625 27.188 C-7.615 22.212 -7.931 17.893 -7.875 12.562 C-7.883 11.812 -7.89 11.062 -7.898 10.289 C-7.873 3.14 -7.873 3.14 -5.625 0.188 C-2.625 -0.812 -2.625 -0.812 0 0 Z " fill="#36D0C8" transform="translate(142.625,23.8125)"/>
<path d="M0 0 C-1.069 5.116 -2.233 10.078 -4 15 C-4.66 15 -5.32 15 -6 15 C-6.433 14.237 -6.866 13.474 -7.312 12.688 C-9.2 9.681 -10.881 8.601 -14 7 C-11.725 4.447 -9.568 3.159 -6.438 1.812 C-5.652 1.468 -4.867 1.124 -4.059 0.77 C-2 0 -2 0 0 0 Z " fill="#3871FF" transform="translate(266,35)"/>
<path d="M0 0 C0.66 0 1.32 0 2 0 C2 0.66 2 1.32 2 2 C2.99 2 3.98 2 5 2 C5 5.3 5 8.6 5 12 C-2.013 11.762 -2.013 11.762 -4.68 9.703 C-6.032 8.16 -7.149 6.87 -8 5 C-7.67 4.01 -7.34 3.02 -7 2 C-6.01 2.99 -5.02 3.98 -4 5 C-3.856 4.752 -3.856 4.752 -3.125 3.5 C-2.754 3.005 -2.382 2.51 -2 2 C-1.34 2 -0.68 2 0 2 C0 1.34 0 0.68 0 0 Z " fill="#19C2CC" transform="translate(146,48)"/>
<path d="M0 0 C0.99 0 1.98 0 3 0 C4.445 2.891 4.224 5.771 4.25 8.938 C4.26 9.254 4.26 9.254 4.312 10.857 C4.337 13.731 4.31 15.567 2.609 17.941 C1 19 1 19 -1 19 C-1.029 16.021 -1.047 13.042 -1.062 10.062 C-1.071 9.212 -1.079 8.362 -1.088 7.486 C-1.091 6.677 -1.094 5.869 -1.098 5.035 C-1.103 4.286 -1.108 3.537 -1.114 2.766 C-1 1 -1 1 0 0 Z " fill="#249DED" transform="translate(165,38)"/>
<path d="M0 0 C0.99 0 1.98 0 3 0 C3 8.58 3 17.16 3 26 C2.01 25.67 1.02 25.34 0 25 C0 16.75 0 8.5 0 0 Z " fill="#04C2BE" transform="translate(138,26)"/>
<path d="M0 0 C2.31 0 4.62 0 7 0 C7 3.3 7 6.6 7 10 C4.69 10 2.38 10 0 10 C0 6.7 0 3.4 0 0 Z " fill="#20A3EA" transform="translate(163,23)"/>
<path d="M0 0 C0.488 8.014 -0.012 13.949 -4 21 C-4.33 21 -4.66 21 -5 21 C-4.67 14.4 -4.34 7.8 -4 1 C-1 0 -1 0 0 0 Z " fill="#3CBEE7" transform="translate(162,24)"/>
<path d="M0 0 C4.16 3.612 6.022 6.465 7 12 C7.217 15.153 7.191 18.279 7.125 21.438 C7.116 22.264 7.107 23.091 7.098 23.943 C7.074 25.963 7.042 27.981 7 30 C6.34 30.33 5.68 30.66 5 31 C4.985 30.431 4.971 29.862 4.956 29.275 C4.881 26.662 4.784 24.05 4.688 21.438 C4.665 20.542 4.642 19.647 4.619 18.725 C4.392 13.08 3.527 9.053 1 4 C0.627 2.677 0.27 1.348 0 0 Z " fill="#78A0FE" transform="translate(179,27)"/>
<path d="M0 0 C0.66 0.33 1.32 0.66 2 1 C1.841 1.353 1.841 1.353 1.039 3.137 C-0.045 6.125 -0.396 8.651 -0.625 11.812 C-0.7 12.788 -0.775 13.764 -0.852 14.77 C-0.901 15.506 -0.95 16.242 -1 17 C0.65 17 2.3 17 4 17 C4 17.33 4 17.66 4 18 C-1.498 18.367 -1.498 18.367 -3.703 16.758 C-5.795 13.922 -5.075 11.641 -4.594 8.297 C-3.714 4.895 -2.176 2.737 0 0 Z " fill="#30C1DB" transform="translate(153,28)"/>
<path d="M0 0 C0 3.3 0 6.6 0 10 C-1.98 10.66 -3.96 11.32 -6 12 C-6 8.7 -6 5.4 -6 2 C-2 0 -2 0 0 0 Z " fill="#1BB3E1" transform="translate(161,49)"/>
<path d="M0 0 C2.31 0.33 4.62 0.66 7 1 C9.054 5.216 9.148 7.39 7.625 11.875 C7.101 13.257 6.565 14.634 6 16 C5.67 16 5.34 16 5 16 C4.67 11.05 4.34 6.1 4 1 C2.35 1.33 0.7 1.66 -1 2 C-0.67 1.34 -0.34 0.68 0 0 Z " fill="#58AFF3" transform="translate(164,37)"/>
<path d="M0 0 C2.123 3.184 2.28 4.205 2.414 7.887 C2.453 8.825 2.491 9.762 2.531 10.729 C2.547 11.217 2.547 11.217 2.625 13.688 C2.644 14.182 2.644 14.182 2.742 16.682 C2.836 19.121 2.922 21.56 3 24 C2.01 24.33 1.02 24.66 0 25 C0 16.75 0 8.5 0 0 Z " fill="#3073FC" transform="translate(182,35)"/>
<path d="M0 0 C0.99 0.33 1.98 0.66 3 1 C3 5.29 3 9.58 3 14 C2.34 14 1.68 14 1 14 C-1.35 11.51 -1.241 9.183 -1.188 5.875 C-1.181 4.986 -1.175 4.096 -1.168 3.18 C-1 1 -1 1 0 0 Z " fill="#3594F3" transform="translate(172,24)"/>
<path d="M0 0 C0.33 0 0.66 0 1 0 C1.33 5.94 1.66 11.88 2 18 C1.01 18.33 0.02 18.66 -1 19 C-1.029 16.021 -1.047 13.042 -1.062 10.062 C-1.071 9.212 -1.079 8.362 -1.088 7.486 C-1.091 6.677 -1.094 5.869 -1.098 5.035 C-1.103 4.286 -1.108 3.537 -1.114 2.766 C-1 1 -1 1 0 0 Z " fill="#23A4EA" transform="translate(165,38)"/>
<path d="M0 0 C0.33 0.66 0.66 1.32 1 2 C1.99 2 2.98 2 4 2 C4 5.3 4 8.6 4 12 C3.01 12 2.02 12 1 12 C0.67 8.04 0.34 4.08 0 0 Z " fill="#10BBD1" transform="translate(147,48)"/>
<path d="M0 0 C2.375 1.188 2.375 1.188 3.375 3.188 C3.138 3.352 3.138 3.352 1.938 4.188 C-0.422 7.207 -0.367 10.448 -0.625 14.188 C-0.955 14.188 -1.285 14.188 -1.625 14.188 C-1.625 10.227 -1.625 6.267 -1.625 2.188 C-2.945 1.527 -4.265 0.867 -5.625 0.188 C-2.625 -0.812 -2.625 -0.812 0 0 Z " fill="#1DC6C7" transform="translate(142.625,23.8125)"/>
<path d="M0 0 C0.33 0 0.66 0 1 0 C1.027 2.229 1.047 4.458 1.062 6.688 C1.071 7.313 1.079 7.939 1.088 8.584 C1.107 12.195 0.858 15.466 0 19 C-0.66 19 -1.32 19 -2 19 C-2.295 12.503 -1.173 6.378 0 0 Z " fill="#18B5DF" transform="translate(157,26)"/>
<path d="M0 0 C0 3.96 0 7.92 0 12 C-0.66 12 -1.32 12 -2 12 C-3.203 9.595 -3.101 8.05 -3.062 5.375 C-3.053 4.558 -3.044 3.74 -3.035 2.898 C-3.024 2.272 -3.012 1.645 -3 1 C-1 0 -1 0 0 0 Z " fill="#22B1E6" transform="translate(162,24)"/>
<path d="M0 0 C-1.32 0.33 -2.64 0.66 -4 1 C-4 4.3 -4 7.6 -4 11 C-4.99 11 -5.98 11 -7 11 C-7 7.37 -7 3.74 -7 0 C-2 -1 -2 -1 0 0 Z " fill="#36C1E0" transform="translate(159,50)"/>
<path d="M0 0 C0.99 0 1.98 0 3 0 C3 3.3 3 6.6 3 10 C2.01 10 1.02 10 0 10 C0 6.7 0 3.4 0 0 Z " fill="#2299EE" transform="translate(167,23)"/>
<path d="M0 0 C4.034 3.517 5.612 5.438 6 11 C5.34 11 4.68 11 4 11 C0.74 3.702 0.74 3.702 0 0 Z " fill="#5A92FC" transform="translate(179,27)"/>
<path d="M0 0 C0.33 0 0.66 0 1 0 C1.33 3.63 1.66 7.26 2 11 C1.01 10.34 0.02 9.68 -1 9 C-0.67 6.03 -0.34 3.06 0 0 Z " fill="#59CFDF" transform="translate(149,34)"/>
<path d="M0 0 C0.99 0.33 1.98 0.66 3 1 C1.845 1.99 1.845 1.99 -4 7 C-2.926 4.085 -2.222 2.222 0 0 Z " fill="#656767" transform="translate(95,35)"/>
<path d="M0 0 C1.562 1.812 1.562 1.812 3 4 C2.67 4.99 2.34 5.98 2 7 C0.438 5.188 0.438 5.188 -1 3 C-0.67 2.01 -0.34 1.02 0 0 Z " fill="#3DCFCE" transform="translate(139,50)"/>
<path d="M0 0 C0.99 0.33 1.98 0.66 3 1 C2.01 1.825 2.01 1.825 -3 6 C-2.427 3.133 -2.139 2.139 0 0 Z " fill="#606362" transform="translate(197,34)"/>
<path d="M0 0 C0.66 0.33 0.66 0.33 4 2 C3.505 2.33 3.505 2.33 1 4 C0.67 2.68 0.34 1.36 0 0 Z " fill="#40CDD2" transform="translate(142,24)"/>
<path d="M0 0 C0.99 0.33 1.98 0.66 3 1 C2.67 1.495 2.67 1.495 1 4 C0.67 2.68 0.34 1.36 0 0 Z " fill="#4AD5CE" transform="translate(136,47)"/>
</svg>
