<svg xmlns="http://www.w3.org/2000/svg" width="315" height="86" viewBox="0 0 315 86" role="img" aria-labelledby="title desc">
  <title id="title">HotelnGo</title>
  <desc id="desc">Pretendard 고딕 워드마크, Ocean Route 그라데이션 n, 중앙 정렬된 나침반 화살표를 담은 파란 지도 마커로 구성한 HotelnGo 공식 로고</desc>
  <style>
    @font-face{font-family:Pretendard;src:url("../fonts/PretendardVariable.woff2") format("woff2-variations");font-weight:100 900}
    .word{font-family:Pretendard,"Noto Sans",Arial,sans-serif;font-weight:800;letter-spacing:-2.4px;fill:#181b1a;transform:scaleY(.94);transform-box:fill-box;transform-origin:center}
  </style>
  <defs>
    <linearGradient id="ocean-route" gradientUnits="userSpaceOnUse" x1="144" y1="45" x2="180" y2="45">
      <stop offset="0" stop-color="#00C6B7"/>
      <stop offset=".48" stop-color="#1CB3E5"/>
      <stop offset="1" stop-color="#2F6BFF"/>
    </linearGradient>
  </defs>
  <g transform="translate(-.65)">
    <text class="word" x="7.3" y="59" font-size="56">Hotel</text>
    <g transform="translate(144 59) scale(1.45) translate(-144 -59)" fill="url(#ocean-route)">
      <path d="M147.51 31.89 149.62 32.24 151.55 34.54 151.73 46.77 152.08 48.01 154.19 50.49 158.40 51.38 161.21 50.14 162.79 47.48 163.14 44.11 164.90 42.16 167.71 41.81 169.99 43.41 170.52 46.06 169.64 50.67 168.06 53.51 165.07 56.52 161.21 58.47 157 59 152.43 58.11 149.97 56.87 147.16 54.39 144.35 48.72 144 35.43 145.23 32.77Z"/>
      <path d="M164.72 31 168.76 31 172.45 32.06 175.61 34.19 178.77 38.44 180 43.05 180 55.81 179.47 57.23 177.89 58.65 174.56 58.65 172.62 56.52 172.45 43.05 171.04 40.22 169.64 39.15 165.42 38.62 162.61 40.22 161.21 42.87 160.86 45.89 158.93 47.84 155.59 47.84 153.48 45.18 154.01 40.22 156.47 35.61 160.16 32.59Z"/>
    </g>
    <text class="word" x="202" y="59" font-size="56">g</text>
    <g transform="translate(28)">
      <path d="M247 6c-20.5 0-35 13.7-35 33.5 0 16.5 11.3 28.7 35 45.5 23.7-16.8 35-29 35-45.5C282 19.7 267.5 6 247 6Z" fill="#2F6BFF"/>
      <circle cx="247" cy="38.5" r="14" fill="#fff"/>
      <path d="m239 39 17-8-6.2 17.6-4.5-7Z" fill="#2F6BFF" transform="translate(-1.8 -.5)"/>
    </g>
  </g>
</svg>
