<svg xmlns="http://www.w3.org/2000/svg" width="303" height="91" viewBox="0 0 303 91" role="img" aria-labelledby="title desc">
<title id="title">HotelnGo official logo</title>
<desc id="desc">Approved HotelnGo wordmark with route-shaped n and map-pin O</desc>
<defs><linearGradient id="route" gradientUnits="userSpaceOnUse" x1="130" y1="0" x2="184" y2="0"><stop offset="0" stop-color="#05C3BF"/><stop offset=".2" stop-color="#08C0C4"/><stop offset=".4" stop-color="#15B8DA"/><stop offset=".6" stop-color="#219FEC"/><stop offset=".8" stop-color="#2886F5"/><stop offset="1" stop-color="#2E6DFE"/></linearGradient></defs>
<g fill="#181B1A"><path d="M0 0 C2.97 0 5.94 0 9 0 C9 4.95 9 9.9 9 15 C13.95 15 18.9 15 24 15 C24 10.05 24 5.1 24 0 C26.97 0 29.94 0 33 0 C33 11.88 33 23.76 33 36 C30.03 36 27.06 36 24 36 C24 31.38 24 26.76 24 22 C19.05 22 14.1 22 9 22 C9 26.62 9 31.24 9 36 C6.03 36 3.06 36 0 36 C0 24.12 0 12.24 0 0 Z "  transform="translate(8,24)"/><path d="M0 0 C2.64 0 5.28 0 8 0 C8 11.88 8 23.76 8 36 C5.36 36 2.72 36 0 36 C0 24.12 0 12.24 0 0 Z "  transform="translate(120,24)"/><path d="M0 0 C2.97 0 5.94 0 9 0 C9 1.98 9 3.96 9 6 C10.65 6 12.3 6 14 6 C14 8.31 14 10.62 14 13 C12.35 13 10.7 13 9 13 C9 17.29 9 21.58 9 26 C10.98 26 12.96 26 15 26 C15.027 27.146 15.046 28.292 15.062 29.438 C15.074 30.076 15.086 30.714 15.098 31.371 C15.065 31.909 15.033 32.446 15 33 C14.67 33.33 14.34 33.66 14 34 C10.772 34.392 7.451 34.576 4.395 33.363 C2.781 32.393 1.333 31.333 0 30 C-0.114 28.326 -0.114 28.326 -0.098 26.184 C-0.096 25.802 -0.096 25.802 -0.088 23.869 C-0.08 23.067 -0.071 22.264 -0.062 21.438 C-0.058 20.631 -0.053 19.825 -0.049 18.994 C-0.037 16.996 -0.021 14.998 0 13 C-1.32 13 -2.64 13 -4 13 C-4 10.69 -4 8.38 -4 6 C-2.68 6 -1.36 6 0 6 C0 4.02 0 2.04 0 0 Z "  transform="translate(76,27)"/><path d="M0 0 C2.551 1.11 4.028 2.456 5.938 4.492 C8.092 8.736 7.661 13.913 7.062 18.492 C5.952 21.611 4.335 23.506 1.742 25.516 C-1.666 27.545 -4.994 27.957 -8.918 27.77 C-12.325 27.302 -15.118 26.505 -17.938 24.492 C-20.365 21.786 -21.673 19.051 -22.281 15.469 C-22.461 11.568 -21.975 8.194 -19.961 4.812 C-15.004 -1.582 -7.53 -1.974 0 0 Z M-9.938 6.492 C-11.256 8.173 -11.907 9.299 -12.238 11.43 C-12.25 13.493 -12.231 15.448 -11.938 17.492 C-10.438 19.492 -10.438 19.492 -8.938 20.492 C-7.288 20.162 -5.638 19.832 -3.938 19.492 C-3.073 17.183 -2.346 14.927 -1.938 12.492 C-2.63 10.042 -3.13 8.3 -4.938 6.492 C-6.604 6.452 -8.271 6.449 -9.938 6.492 Z "  transform="translate(64.9375,33.5078125)"/><path d="M0 0 C2.87 0.892 4.56 2.592 6.75 4.625 C8 7 8 7 9 16 C2.73 16 -3.54 16 -10 16 C-9.67 16.99 -9.34 17.98 -9 19 C-6.69 19.33 -4.38 19.66 -2 20 C-1.67 19.67 -1.34 19.34 -1 19 C0.686 18.928 2.375 18.916 4.062 18.938 C4.982 18.947 5.901 18.956 6.848 18.965 C7.558 18.976 8.268 18.988 9 19 C8.251 21.205 7.36 23.104 6 25 C2.717 27.371 -0.941 28.194 -4.938 28.438 C-8.803 28.257 -11.933 27.217 -15.297 25.316 C-17.648 23.499 -18.732 21.872 -19.664 19.062 C-20.337 14.93 -20.016 11.049 -19 7 C-17.633 4.227 -15.854 2.525 -13.203 0.895 C-8.983 -0.819 -4.47 -0.432 0 0 Z M-6 6 C-7.32 7.32 -8.64 8.64 -10 10 C-7.03 10 -4.06 10 -1 10 C-1.33 9.01 -1.66 8.02 -2 7 C-3.32 6.67 -4.64 6.34 -6 6 Z "  transform="translate(110,33)"/><path d="M0 0 C1.777 1.02 1.777 1.02 3 2 C3.33 1.34 3.66 0.68 4 0 C6.97 0 9.94 0 13 0 C13.099 4.323 13.172 8.646 13.22 12.97 C13.24 14.439 13.267 15.909 13.302 17.378 C13.351 19.496 13.373 21.612 13.391 23.73 C13.411 24.383 13.432 25.035 13.453 25.707 C13.454 28.27 13.419 30.246 12.158 32.517 C10.593 34.538 9.049 35.969 6.875 37.312 C1.73 38.543 -3.395 38.965 -8.426 37.102 C-10.343 36.141 -12.183 35.137 -14 34 C-14.33 32.35 -14.66 30.7 -15 29 C-11.7 29 -8.4 29 -5 29 C-5 29.66 -5 30.32 -5 31 C-3.845 30.835 -3.845 30.835 2 30 C2 28.68 2 27.36 2 26 C1.34 26.33 0.68 26.66 0 27 C-3.364 27.462 -6.587 27.54 -9.789 26.316 C-11.944 25.037 -13.515 23.81 -14.812 21.645 C-16.251 17.919 -16.555 13.938 -16 10 C-15.024 6.545 -13.684 3.815 -11.375 1.062 C-7.707 -0.578 -3.955 -0.561 0 0 Z M-4.75 8.062 C-6.093 10.144 -6.262 11.077 -6.375 13.5 C-6.305 15.348 -6.305 15.348 -6 17 C-4.5 18.938 -4.5 18.938 -3 20 C1.502 19.408 1.502 19.408 3.375 17.875 C4.228 15.317 3.87 13.258 3.484 10.621 C3 9 3 9 1 7 C-1.462 6.603 -2.61 6.763 -4.75 8.062 Z "  transform="translate(208,33)"/><path d="M0 0 C0.33 0 0.66 0 1 0 C1 5.94 1 11.88 1 18 C0.67 18 0.34 18 0 18 C0 12.06 0 6.12 0 0 Z "  transform="translate(185,39)"/></g>
<g fill="url(#route)"><path d="M0 0 C4.068 1.983 7.064 5.075 9.375 8.938 C11.532 14.23 11.711 19.474 11.688 25.125 C11.704 25.918 11.72 26.712 11.736 27.529 C11.739 31.153 11.741 33.323 9.855 36.488 C9.367 36.967 8.878 37.445 8.375 37.938 C3.883 38.133 3.883 38.133 2.375 37.938 C0.375 35.938 0.375 35.938 -0.004 33.83 C-0.064 32.98 -0.125 32.13 -0.188 31.254 C-0.262 30.326 -0.337 29.399 -0.414 28.443 C-0.484 27.472 -0.553 26.501 -0.625 25.5 C-0.763 23.584 -0.908 21.669 -1.062 19.754 C-1.123 18.903 -1.184 18.051 -1.246 17.174 C-1.625 14.938 -1.625 14.938 -3.625 11.938 C-6.265 11.938 -8.905 11.938 -11.625 11.938 C-11.974 12.648 -12.324 13.358 -12.684 14.09 C-13.143 15.018 -13.603 15.947 -14.062 16.875 C-14.293 17.344 -14.523 17.812 -14.76 18.295 C-16.512 21.824 -16.512 21.824 -17.625 22.938 C-21.862 23.306 -21.862 23.306 -23.625 22.938 C-25.32 21.422 -25.32 21.422 -26.625 19.938 C-26.243 11.332 -26.243 11.332 -23.812 7.625 C-23.106 6.711 -22.378 5.814 -21.625 4.938 C-21.006 4.195 -20.387 3.453 -19.75 2.688 C-14.212 -1.873 -6.67 -2.385 0 0 Z "  transform="translate(174.625,23.0625)"/><path d="M0 0 C0.66 0 1.32 0 2 0 C2 11.88 2 23.76 2 36 C1.34 36 0.68 36 0 36 C0 24.12 0 12.24 0 0 Z "  transform="translate(128,24)"/><path d="M0 0 C0.33 0.33 0.66 0.66 1 1 C1.214 2.449 1.37 3.908 1.5 5.367 C1.541 5.81 1.541 5.81 1.75 8.051 C1.791 8.517 1.791 8.517 2 10.875 C2.163 12.706 2.33 14.537 2.5 16.367 C2.572 17.183 2.644 17.999 2.719 18.839 C2.961 20.703 3.324 22.256 4 24 C11.187 24.461 11.187 24.461 13.875 22.938 C15.247 20.575 15.873 18.276 16.473 15.621 C17 14 17 14 19 12 C21.31 12.33 23.62 12.66 26 13 C27.429 15.933 28.131 17.89 27.746 21.156 C26.534 25.609 24.75 28.712 21.438 31.938 C17.688 34.884 14.242 36.323 9.523 36.977 C5.228 37.016 1.744 36.098 -2 34 C-4.181 32.244 -5.586 30.406 -7 28 C-7.318 27.482 -7.637 26.964 -7.965 26.43 C-10.329 21.571 -10.278 16.547 -10.312 11.25 C-10.318 10.505 -10.324 9.759 -10.329 8.991 C-10.279 5.212 -10.221 2.217 -8 -1 C-5.169 -2.888 -2.831 -1.341 0 0 Z "  transform="translate(145,25)"/></g>
<g fill="#2F6BFF"><path d="M0 0 C8.065 -0.412 16.3 1.594 23.16 5.84 C28.762 9.96 32.628 14.92 35.16 21.402 C37.333 28.976 37.144 36.378 34.723 43.84 C32.452 49.384 29.274 53.72 25.285 58.152 C24.7 58.807 24.115 59.462 23.512 60.137 C17.731 66.235 11.016 71.16 4.285 76.152 C0.212 75.559 -2.37 73.421 -5.527 70.965 C-6.061 70.555 -6.594 70.145 -7.144 69.722 C-8.673 68.54 -10.194 67.347 -11.715 66.152 C-12.394 65.632 -13.074 65.111 -13.773 64.574 C-21.267 58.552 -27.926 50.445 -30.715 41.152 C-32.387 33.438 -31.607 26.384 -28.934 18.992 C-26.587 13.743 -23.305 9.62 -18.715 6.152 C-12.791 2.631 -6.845 0.608 0 0 Z "  transform="translate(257.71484375,9.84765625)"/></g>
<circle cx="259.5" cy="41.5" r="14.25" fill="#fff"/>
<g fill="#2F6BFF"><path d="M0 0 C8.91 0 17.82 0 27 0 C27 2.31 27 4.62 27 7 C26.587 6.68 26.587 6.68 24.5 5.062 C21.387 3.007 18.664 2.199 14.957 1.895 C11.801 2.065 9.545 3.187 7 5 C5.321 6.39 4.268 7.344 3.445 9.355 C2.575 12.571 2.552 15.709 3 19 C3.964 21.395 5.17 23.182 7 25 C10.275 26.947 13.466 27.422 17.227 27.332 C20.359 26.745 22.527 24.906 25 23 C25.66 22.67 26.32 22.34 27 22 C27 24.64 27 27.28 27 30 C18.09 30 9.18 30 0 30 C0 20.1 0 10.2 0 0 Z "  transform="translate(245,27)"/><path d="M0 0 C-1.069 5.116 -2.233 10.078 -4 15 C-5.106 14.064 -6.209 13.126 -7.312 12.188 C-7.927 11.665 -8.542 11.143 -9.176 10.605 C-10.854 9.128 -12.439 7.6 -14 6 C-12.044 4.995 -10.086 3.996 -8.125 3 C-7.569 2.714 -7.014 2.428 -6.441 2.133 C-5.906 1.862 -5.371 1.591 -4.82 1.312 C-4.574 1.187 -4.574 1.187 -3.329 0.551 C-2 0 -2 0 0 0 Z "  transform="translate(266,35)"/></g>
</svg>
